# xmcd
#
# Track frame offsets: 
#        150
#        4066
#        26737
#        43968
#        57669
#        76733
#        92610
#        107514
#        124955
#
# Disc length: 1765 seconds
#
# Revision: 0
# Processed by: cddbd v1.5.2PL0 Copyright (c) Steve Scherf et al.
# Submitted via: ExactAudioCopy v1.0b3
#
DISCID=6f06e309
DTITLE=Rearmed - Rottendam
DYEAR=2014
DGENRE=Metal
TTITLE0=Dead Light District (intro)
TTITLE1=Rottendam
TTITLE2=Wracked
TTITLE3=Hedonist
TTITLE4=SuperAnimal
TTITLE5=Putos Muertos
TTITLE6=Apocalypse Postponed
TTITLE7=Freakshow
TTITLE8=Exiled (outro)
EXTD=
EXTT0=
EXTT1=
EXTT2=
EXTT3=
EXTT4=
EXTT5=
EXTT6=
EXTT7=
EXTT8=
PLAYORDER=
